<?xml version="1.0" encoding="utf-8"?>
<!-- Generator: Adobe Illustrator 21.1.0, SVG Export Plug-In . SVG Version: 6.00 Build 0)  -->
<svg version="1.1" id="Layer_1" xmlns="http://www.w3.org/2000/svg" xmlns:xlink="http://www.w3.org/1999/xlink" x="0px" y="0px"
	 viewBox="0 0 300 300" style="enable-background:new 0 0 300 300;" xml:space="preserve">
<style type="text/css">
	.st0{fill:#4D4D4D;}
	.st1{fill:#FFFFFF;}
	.st2{fill:#F0BE46;}
	.st3{fill:#BE502D;}
	.st4{fill:#E2DFB4;}
	.st5{fill:#B3B3B3;}
</style>
<g>
	<g>
		<path class="st0" d="M166.7,215.3h-17.2h-17.3c0,0-0.5,17.5-11.8,24.8c0,0,8.2,5.4,29.1,4.7c20.8,0.7,29.1-4.7,29.1-4.7
			C167.3,232.8,166.7,215.3,166.7,215.3z"/>
		<path class="st0" d="M6.3,211.1c-2.7-0.4-4.8-3-4.8-5.7V48.6c0-2.7,2.2-4.9,4.9-4.9h287.3c2.7,0,4.9,2.2,4.9,4.9v156.8
			c0,2.7-2.2,5.2-4.8,5.6c0,0-49.8,7.2-143.7,7.2C50.8,218.3,6.3,211.1,6.3,211.1z"/>
		<rect x="5.7" y="48.3" class="st1" width="288.6" height="152"/>
		<path class="st0" d="M215.9,235.2H83.2c-2,0-3.7,1.6-3.7,3.7v2.3c0,2,1.6,3.7,3.7,3.7h132.7c2,0,3.7-1.6,3.7-3.7v-2.3
			C219.5,236.9,217.9,235.2,215.9,235.2z"/>
		<rect x="5.7" y="48.3" class="st1" width="288.6" height="152"/>
		<rect x="5.7" y="48.1" class="st2" width="288.6" height="14.7"/>
		<rect x="5.7" y="182.5" class="st2" width="288.6" height="17.8"/>
		<rect x="33.4" y="189.8" class="st3" width="99.5" height="3.3"/>
		<rect x="135.6" y="189.8" class="st4" width="152.8" height="3.3"/>
		<g>
			<rect x="16.1" y="189.1" class="st3" width="1.6" height="4.4"/>
			<rect x="18.4" y="189.1" class="st3" width="1.6" height="4.4"/>
		</g>
		<polygon class="st3" points="12.8,191.4 8.9,193.6 8.9,189.1 		"/>
		<rect x="24.1" y="189.2" class="st3" width="4.4" height="4.4"/>
	</g>
	<circle class="st5" cx="150" cy="207.6" r="4.2"/>
	<polygon class="st3" points="180.5,124.3 142.7,146.1 142.7,102.5 	"/>
	<path class="st3" d="M156.5,162.3c-20.9,0-38-17-38-38c0-20.9,17-38,38-38s38,17,38,38C194.5,145.2,177.5,162.3,156.5,162.3z
		 M156.5,88.3c-19.8,0-36,16.1-36,36c0,19.8,16.1,36,36,36s36-16.1,36-36C192.5,104.4,176.4,88.3,156.5,88.3z"/>
	<rect x="132.9" y="187.6" class="st3" width="2.8" height="7.6"/>
</g>
</svg>
