<?xml version="1.0" encoding="utf-8"?>
<!-- Generator: Adobe Illustrator 21.1.0, SVG Export Plug-In . SVG Version: 6.00 Build 0)  -->
<svg version="1.1" id="Layer_1" xmlns="http://www.w3.org/2000/svg" xmlns:xlink="http://www.w3.org/1999/xlink" x="0px" y="0px"
	 viewBox="0 0 300 300" style="enable-background:new 0 0 300 300;" xml:space="preserve">
<style type="text/css">
	.st0{fill:#4D4D4D;}
	.st1{fill:#F0BE46;}
	.st2{fill:none;stroke:#FFFFFF;stroke-width:6;stroke-linecap:round;stroke-linejoin:round;stroke-miterlimit:10;}
	.st3{fill:#F0BE46;stroke:#FFFFFF;stroke-width:3;stroke-miterlimit:10;}
	.st4{fill:#BE502D;stroke:#FFFFFF;stroke-width:3;stroke-miterlimit:10;}
	.st5{fill:#4D4D4D;stroke:#FFFFFF;stroke-width:3;stroke-miterlimit:10;}
	.st6{fill:none;stroke:#4D4D4D;stroke-width:3;stroke-miterlimit:10;}
</style>
<path class="st0" d="M168.4,181.2L97,57.5c-0.8-1.4-2.3-2.3-3.9-2.3c-1.6,0-3.1,0.9-3.9,2.3L17.7,181.2c-0.6,1.1-0.8,2.4-0.4,3.6
	c0.4,1.2,1.2,2.2,2.3,2.8c0.4,0.2,35.3,18,35.8,56.8v4.4c0,2.5,2,4.6,4.6,4.6h66.2c2.5,0,4.6-2,4.6-4.6v-4.3
	c0.5-38.7,34.3-56.1,35.8-56.8c1.1-0.6,2-1.6,2.3-2.8C169.2,183.5,169,182.2,168.4,181.2z M121.6,244.1H64.5
	C64,208,38.2,188.2,27.8,181.8l60.7-105v108.1c-1.6,1.4-2.7,3.4-2.7,5.6c0,4.1,3.3,7.4,7.4,7.4c4.1,0,7.4-3.3,7.4-7.4
	c0-2.4-1.2-4.6-3-5.9V76.8l60.7,105C147.9,188.2,122.1,208,121.6,244.1z"/>
<path class="st1" d="M124.1,251.4H62c-3.6,0-6.6,3-6.6,6.6v22c0,3.6,3,6.6,6.6,6.6h62.1c3.6,0,6.6-3,6.6-6.6v-22
	C130.7,254.4,127.8,251.4,124.1,251.4z"/>
<path class="st2" d="M290.3,108.3"/>
<g>
	<path class="st0" d="M221,120.7c-2.8,0-5.7-0.2-8.6-0.6c-24.6-3.3-45.9-20.6-63.4-51.6c-16.2-28.7-33.7-43.2-51.9-42.9
		C65.5,26,41.5,70.4,41.2,70.9l-4-2.1c1-1.9,25.6-47.2,59.8-47.6c20-0.2,38.8,15,55.9,45.2c16.8,29.7,37,46.2,60,49.3
		c37.7,5,70.8-28.1,71.2-28.5l3.2,3.2C286.1,91.7,257,120.7,221,120.7z"/>
	<path class="st1" d="M40.4,74.3c-3.3,0-6-2.7-6-6c0-3.3,2.7-6,6-6s6,2.7,6,6C46.3,71.6,43.6,74.3,40.4,74.3z M40.4,66.9
		c-0.8,0-1.4,0.6-1.4,1.4s0.6,1.4,1.4,1.4c0.8,0,1.4-0.6,1.4-1.4S41.1,66.9,40.4,66.9z"/>
	<path class="st1" d="M97.3,29.3c-3.3,0-6-2.7-6-6s2.7-6,6-6c3.3,0,6,2.7,6,6S100.6,29.3,97.3,29.3z M97.3,21.9
		c-0.8,0-1.4,0.6-1.4,1.4c0,0.8,0.6,1.4,1.4,1.4s1.4-0.6,1.4-1.4C98.7,22.6,98.1,21.9,97.3,21.9z"/>
	<path class="st1" d="M162.5,91.5c-3.3,0-6-2.7-6-6c0-3.3,2.7-6,6-6c3.3,0,6,2.7,6,6C168.5,88.8,165.8,91.5,162.5,91.5z M162.5,84.1
		c-0.8,0-1.4,0.6-1.4,1.4c0,0.8,0.6,1.4,1.4,1.4c0.8,0,1.4-0.6,1.4-1.4C163.9,84.7,163.3,84.1,162.5,84.1z"/>
	<path class="st1" d="M284.3,96.4c-3.3,0-6-2.7-6-6c0-3.3,2.7-6,6-6c3.3,0,6,2.7,6,6C290.3,93.7,287.6,96.4,284.3,96.4z M284.3,89
		c-0.8,0-1.4,0.6-1.4,1.4c0,0.8,0.6,1.4,1.4,1.4s1.4-0.6,1.4-1.4C285.8,89.6,285.1,89,284.3,89z"/>
</g>
<circle class="st3" cx="224.4" cy="165.3" r="39.9"/>
<circle class="st4" cx="224.4" cy="205.2" r="39.9"/>
<circle class="st5" cx="224.4" cy="246.7" r="39.9"/>
<circle class="st6" cx="224.4" cy="57.4" r="39.9"/>
<g>
	<path class="st0" d="M212.4,34.5c2.9-0.6,6.9-0.9,10.8-0.9c6,0,9.9,1.1,12.7,3.6c2.2,1.9,3.4,4.9,3.4,8.3c0,5.8-3.6,9.6-8.2,11.2
		v0.2c3.4,1.2,5.4,4.3,6.4,8.8c1.4,6.1,2.5,10.3,3.4,12h-5.8c-0.7-1.3-1.7-5-2.9-10.4c-1.3-6-3.6-8.3-8.8-8.5h-5.3v18.9h-5.6V34.5z
		 M218.1,54.4h5.8c6,0,9.9-3.3,9.9-8.3c0-5.6-4.1-8.1-10.1-8.2c-2.7,0-4.7,0.3-5.6,0.5V54.4z"/>
</g>
</svg>
