<?xml version="1.0" encoding="utf-8"?>
<!-- Generator: Adobe Illustrator 21.1.0, SVG Export Plug-In . SVG Version: 6.00 Build 0)  -->
<svg version="1.1" id="Layer_1" xmlns="http://www.w3.org/2000/svg" xmlns:xlink="http://www.w3.org/1999/xlink" x="0px" y="0px"
	 viewBox="0 0 300 300" style="enable-background:new 0 0 300 300;" xml:space="preserve">
<style type="text/css">
	.st0{fill:#4D4D4D;}
	.st1{fill:#F2F2F2;}
	.st2{fill:#B3B3B3;}
	.st3{fill:#606060;}
	.st4{fill:#BE502D;}
	.st5{fill:#F0BE46;}
</style>
<g>
	<g>
		<path class="st0" d="M192.9,163h-1.7c0,0-10-2.7-10-30.7c0-8.2-44.3-8.2-44.3,0.6c0,26.9-10.3,30-10.3,30h-1.4
			c-1.2,0-2.2,1-2.2,2.2v1.1c0,1.2,1,2.2,2.2,2.2h67.7c1.2,0,2.5-1,2.5-2.2v-1.1C195.4,164,194.2,163,192.9,163z"/>
		<path class="st0" d="M237.6,23H80.3c-3,0-5.8,1.6-5.8,4.6v95.2v14.6c0,3,2.8,6.9,5.8,6.9h157.3c3,0,4.6-3.9,4.6-6.9v-14.6V27.6
			C242.2,24.6,240.7,23,237.6,23z"/>
		<rect x="82.6" y="31.9" class="st1" width="151.5" height="86.8"/>
		<path class="st2" d="M165.8,131.8c0,3.8-3.1,6.9-6.9,6.9l0,0c-3.8,0-6.9-3.1-6.9-6.9l0,0c0-3.8,3.1-6.9,6.9-6.9l0,0
			C162.8,125,165.8,128,165.8,131.8L165.8,131.8z"/>
	</g>
</g>
<path class="st3" d="M141.4,44.2c0,1.2-1,2.2-2.5,2.2h-28.3c-1.5,0-2.9-1-2.9-2.2v-4.4c0-1.2,1.4-2.2,2.9-2.2h28.3
	c1.5,0,2.5,1,2.5,2.2V44.2z"/>
<path class="st4" d="M208.6,72.7c0,1.2-1.1,2.2-2.6,2.2h-95.4c-1.5,0-2.9-1-2.9-2.2v-21c0-1.2,1.4-2.2,2.9-2.2H206
	c1.5,0,2.6,1,2.6,2.2V72.7z"/>
<path class="st5" d="M138.8,90.6c0,1.2-1,2.2-2.4,2.2h-25.8c-1.5,0-2.9-1-2.9-2.2V79.3c0-1.2,1.4-2.2,2.9-2.2h25.8
	c1.5,0,2.4,1,2.4,2.2V90.6z"/>
<path class="st5" d="M172.9,90.6c0,1.2-1,2.2-2.4,2.2h-25.8c-1.5,0-2.9-1-2.9-2.2V79.3c0-1.2,1.4-2.2,2.9-2.2h25.8
	c1.5,0,2.4,1,2.4,2.2V90.6z"/>
<path class="st5" d="M208.6,90.6c0,1.2-1.1,2.2-2.6,2.2h-25.8c-1.5,0-2.7-1-2.7-2.2V79.3c0-1.2,1.2-2.2,2.7-2.2H206
	c1.5,0,2.6,1,2.6,2.2V90.6z"/>
<g>
	<path class="st5" d="M172.9,97.1c0,0.5-0.3,0.9-0.9,0.9h-28.7c-0.6,0-1.5-0.3-1.5-0.9v-0.4c0-0.5,0.9-0.9,1.5-0.9H172
		c0.6,0,0.9,0.4,0.9,0.9V97.1z"/>
	<path class="st5" d="M172.9,100.8c0,0.5-0.3,0.9-0.9,0.9h-28.7c-0.6,0-1.5-0.4-1.5-0.9v-0.4c0-0.5,0.9-0.8,1.5-0.8H172
		c0.6,0,0.9,0.3,0.9,0.8V100.8z"/>
	<path class="st5" d="M172.9,104.5c0,0.5-0.3,1-0.9,1h-28.7c-0.6,0-1.5-0.5-1.5-1v-0.4c0-0.5,0.9-0.7,1.5-0.7H172
		c0.6,0,0.9,0.2,0.9,0.7V104.5z"/>
	<path class="st5" d="M172.9,108.3c0,0.5-0.3,1.1-0.9,1.1h-28.7c-0.6,0-1.5-0.6-1.5-1.1v-0.4c0-0.5,0.9-1.1,1.5-1.1H172
		c0.6,0,0.9,0.6,0.9,1.1V108.3z"/>
	<path class="st5" d="M158.8,112c0,0.5-0.4,0.8-0.9,0.8h-14.6c-0.6,0-1.5-0.3-1.5-0.8v-0.4c0-0.5,0.9-1,1.5-1h14.6
		c0.6,0,0.9,0.5,0.9,1V112z"/>
</g>
<g>
	<path class="st5" d="M207.8,97.1c0,0.5,0.1,0.9-0.5,0.9h-28.7c-0.6,0-1-0.3-1-0.9v-0.4c0-0.5,0.4-0.9,1-0.9h28.7
		c0.6,0,0.5,0.4,0.5,0.9V97.1z"/>
	<path class="st5" d="M207.8,100.8c0,0.5,0.1,0.9-0.5,0.9h-28.7c-0.6,0-1-0.4-1-0.9v-0.4c0-0.5,0.4-0.8,1-0.8h28.7
		c0.6,0,0.5,0.3,0.5,0.8V100.8z"/>
	<path class="st5" d="M207.8,104.5c0,0.5,0.1,1-0.5,1h-28.7c-0.6,0-1-0.5-1-1v-0.4c0-0.5,0.4-0.7,1-0.7h28.7c0.6,0,0.5,0.2,0.5,0.7
		V104.5z"/>
	<path class="st5" d="M207.8,108.3c0,0.5,0.1,1.1-0.5,1.1h-28.7c-0.6,0-1-0.6-1-1.1v-0.4c0-0.5,0.4-1.1,1-1.1h28.7
		c0.6,0,0.5,0.6,0.5,1.1V108.3z"/>
	<path class="st5" d="M193.7,112c0,0.5,0,0.8-0.6,0.8h-14.6c-0.6,0-1-0.3-1-0.8v-0.4c0-0.5,0.4-1,1-1h14.6c0.6,0,0.6,0.5,0.6,1V112z
		"/>
</g>
<g>
	<path class="st5" d="M138.4,97.1c0,0.5-0.2,0.9-0.8,0.9h-28.7c-0.6,0-1.1-0.3-1.1-0.9v-0.4c0-0.5,0.5-0.9,1.1-0.9h28.7
		c0.6,0,0.8,0.4,0.8,0.9V97.1z"/>
	<path class="st5" d="M138.4,100.8c0,0.5-0.2,0.9-0.8,0.9h-28.7c-0.6,0-1.1-0.4-1.1-0.9v-0.4c0-0.5,0.5-0.8,1.1-0.8h28.7
		c0.6,0,0.8,0.3,0.8,0.8V100.8z"/>
	<path class="st5" d="M138.4,104.5c0,0.5-0.2,1-0.8,1h-28.7c-0.6,0-1.1-0.5-1.1-1v-0.4c0-0.5,0.5-0.7,1.1-0.7h28.7
		c0.6,0,0.8,0.2,0.8,0.7V104.5z"/>
	<path class="st5" d="M138.4,108.3c0,0.5-0.2,1.1-0.8,1.1h-28.7c-0.6,0-1.1-0.6-1.1-1.1v-0.4c0-0.5,0.5-1.1,1.1-1.1h28.7
		c0.6,0,0.8,0.6,0.8,1.1V108.3z"/>
	<path class="st5" d="M124.3,112c0,0.5-0.3,0.8-0.9,0.8h-14.6c-0.6,0-1.1-0.3-1.1-0.8v-0.4c0-0.5,0.5-1,1.1-1h14.6
		c0.6,0,0.9,0.5,0.9,1V112z"/>
</g>
<g>
	<g>
		<path class="st0" d="M149,237.5H20.5v-82.4c0-1.7,1.7-2.7,3.4-2.7h122.6c1.7,0,2.5,1,2.5,2.7V237.5z"/>
		<rect x="25.6" y="158.3" class="st1" width="119.2" height="72.8"/>
		<path class="st0" d="M165.6,240.9v-3.6c0-0.9-0.4-1.1-1.3-1.1H6.8c-0.9,0-1.7,0.2-1.7,1.1v3.6h0.1c0,0,3.9,3,6.2,3h148.2
			c2.3,0,6.2-3,6.2-3H165.6z"/>
		<path class="st2" d="M99.5,238.8H71.6c-2.3,0-2.3-2.6-2.3-2.6h32.6C101.9,236.2,101.9,238.8,99.5,238.8z"/>
	</g>
</g>
<path class="st3" d="M73.3,168.7c0,1-0.7,1.9-1.7,1.9h-20c-1,0-2.1-0.9-2.1-1.9V165c0-1,1-2,2.1-2h20c1,0,1.7,0.9,1.7,2V168.7z"/>
<path class="st4" d="M120.9,192.6c0,1-0.8,1.9-1.9,1.9H51.3c-1,0-1.9-0.8-1.9-1.9v-17.5c0-1,0.8-1.9,1.9-1.9H119
	c1,0,1.9,0.8,1.9,1.9V192.6z"/>
<path class="st5" d="M71.6,207.6c0,1-0.9,1.8-1.9,1.8H51.5c-1,0-2.1-0.8-2.1-1.8v-9.4c0-1,1-2,2.1-2h18.2c1,0,1.9,0.9,1.9,2V207.6z"
	/>
<path class="st5" d="M95.8,207.5c0,1-0.8,1.9-1.9,1.9H76c-1,0-1.9-0.8-1.9-1.9v-9.4c0-1,0.8-1.9,1.9-1.9h17.9c1,0,1.9,0.8,1.9,1.9
	V207.5z"/>
<path class="st5" d="M120.5,207.5c0,1-0.8,1.9-1.9,1.9h-17.9c-1,0-1.9-0.8-1.9-1.9v-9.4c0-1,0.8-1.9,1.9-1.9h17.9
	c1,0,1.9,0.8,1.9,1.9V207.5z"/>
<g>
	<path class="st5" d="M95.8,213.1c0,0.4-0.2,0.6-0.6,0.6H74.8c-0.4,0-0.7-0.2-0.7-0.6v-0.3c0-0.4,0.3-0.8,0.7-0.8h20.4
		c0.4,0,0.6,0.3,0.6,0.8V213.1z"/>
	<path class="st5" d="M95.8,216.2c0,0.4-0.2,0.9-0.6,0.9H74.8c-0.4,0-0.7-0.5-0.7-0.9v-0.3c0-0.4,0.3-0.9,0.7-0.9h20.4
		c0.4,0,0.6,0.5,0.6,0.9V216.2z"/>
	<path class="st5" d="M95.8,219.3c0,0.4-0.2,1.2-0.6,1.2H74.8c-0.4,0-0.7-0.7-0.7-1.2V219c0-0.4,0.3-1.1,0.7-1.1h20.4
		c0.4,0,0.6,0.6,0.6,1.1V219.3z"/>
	<path class="st5" d="M95.8,222.4c0,0.4-0.2,1-0.6,1H74.8c-0.4,0-0.7-0.6-0.7-1v-0.3c0-0.4,0.3-0.8,0.7-0.8h20.4
		c0.4,0,0.6,0.4,0.6,0.8V222.4z"/>
	<path class="st5" d="M85.6,225.6c0,0.4,0,0.9-0.4,0.9H74.8c-0.4,0-0.7-0.4-0.7-0.9v-0.3c0-0.4,0.3-1,0.7-1h10.4
		c0.4,0,0.4,0.5,0.4,1V225.6z"/>
</g>
<g>
	<path class="st5" d="M120.9,213.1c0,0.4-0.3,0.6-0.7,0.6H99.8c-0.4,0-1-0.2-1-0.6v-0.3c0-0.4,0.6-0.8,1-0.8h20.4
		c0.4,0,0.7,0.3,0.7,0.8V213.1z"/>
	<path class="st5" d="M120.9,216.2c0,0.4-0.3,0.9-0.7,0.9H99.8c-0.4,0-1-0.5-1-0.9v-0.3c0-0.4,0.6-0.9,1-0.9h20.4
		c0.4,0,0.7,0.5,0.7,0.9V216.2z"/>
	<path class="st5" d="M120.9,219.3c0,0.4-0.3,1.2-0.7,1.2H99.8c-0.4,0-1-0.7-1-1.2V219c0-0.4,0.6-1.1,1-1.1h20.4
		c0.4,0,0.7,0.6,0.7,1.1V219.3z"/>
	<path class="st5" d="M120.9,222.4c0,0.4-0.3,1-0.7,1H99.8c-0.4,0-1-0.6-1-1v-0.3c0-0.4,0.6-0.8,1-0.8h20.4c0.4,0,0.7,0.4,0.7,0.8
		V222.4z"/>
	<path class="st5" d="M111.1,225.6c0,0.4-0.5,0.9-0.9,0.9H99.8c-0.4,0-1-0.4-1-0.9v-0.3c0-0.4,0.6-1,1-1h10.4c0.4,0,0.9,0.5,0.9,1
		V225.6z"/>
</g>
<g>
	<path class="st5" d="M71.6,213.1c0,0.4-0.4,0.6-0.8,0.6H50.4c-0.4,0-0.9-0.2-0.9-0.6v-0.3c0-0.4,0.5-0.8,0.9-0.8h20.4
		c0.4,0,0.8,0.3,0.8,0.8V213.1z"/>
	<path class="st5" d="M71.6,216.2c0,0.4-0.4,0.9-0.8,0.9H50.4c-0.4,0-0.9-0.5-0.9-0.9v-0.3c0-0.4,0.5-0.9,0.9-0.9h20.4
		c0.4,0,0.8,0.5,0.8,0.9V216.2z"/>
	<path class="st5" d="M71.6,219.3c0,0.4-0.4,1.2-0.8,1.2H50.4c-0.4,0-0.9-0.7-0.9-1.2V219c0-0.4,0.5-1.1,0.9-1.1h20.4
		c0.4,0,0.8,0.6,0.8,1.1V219.3z"/>
	<path class="st5" d="M71.6,222.4c0,0.4-0.4,1-0.8,1H50.4c-0.4,0-0.9-0.6-0.9-1v-0.3c0-0.4,0.5-0.8,0.9-0.8h20.4
		c0.4,0,0.8,0.4,0.8,0.8V222.4z"/>
	<path class="st5" d="M61.3,225.6c0,0.4-0.2,0.9-0.6,0.9H50.4c-0.4,0-0.9-0.4-0.9-0.9v-0.3c0-0.4,0.5-1,0.9-1h10.4
		c0.4,0,0.6,0.5,0.6,1V225.6z"/>
</g>
<g>
	<g>
		<path class="st0" d="M295,194.7c0,3.3-2.6,6.2-5.8,6.2h-60.9c-3.3,0-6.1-2.9-6.1-6.2v-84.2c0-3.3,2.8-6.2,6.1-6.2h60.9
			c3.3,0,5.8,2.9,5.8,6.2V194.7z"/>
		<rect x="228.2" y="111.5" class="st1" width="60.9" height="74.1"/>
		<circle class="st2" cx="258.8" cy="193" r="4.9"/>
	</g>
</g>
<path class="st3" d="M259.2,123c0,1-0.8,1.7-1.8,1.7h-19.8c-1,0-1.9-0.7-1.9-1.7v-3.7c0-1,0.8-1.9,1.9-1.9h19.8c1,0,1.8,0.8,1.8,1.9
	V123z"/>
<path class="st4" d="M281.4,146.5c0,1-0.7,2.1-1.7,2.1h-42c-1,0-1.9-1-1.9-2.1v-17.3c0-1,0.8-1.9,1.9-1.9h42c1,0,1.7,0.9,1.7,1.9
	V146.5z"/>
<path class="st5" d="M257.5,161.3c0,1-0.9,1.7-2,1.7h-17.9c-1,0-1.9-0.7-1.9-1.7v-9.3c0-1,0.8-1.8,1.9-1.8h17.9c1,0,2,0.8,2,1.8
	V161.3z"/>
<path class="st5" d="M281.4,161.3c0,1-0.7,1.7-1.7,1.7h-17.9c-1,0-1.7-0.7-1.7-1.7v-9.3c0-1,0.6-1.8,1.7-1.8h17.9
	c1,0,1.7,0.8,1.7,1.8V161.3z"/>
<g>
	<path class="st5" d="M281.4,166.7c0,0.4-0.2,0.6-0.6,0.6h-20.1c-0.4,0-0.6-0.1-0.6-0.6v-0.3c0-0.4,0.2-0.8,0.6-0.8h20.1
		c0.4,0,0.6,0.4,0.6,0.8V166.7z"/>
	<path class="st5" d="M281.4,169.8c0,0.4-0.2,0.9-0.6,0.9h-20.1c-0.4,0-0.6-0.5-0.6-0.9v-0.3c0-0.4,0.2-0.9,0.6-0.9h20.1
		c0.4,0,0.6,0.5,0.6,0.9V169.8z"/>
	<path class="st5" d="M281.4,172.9c0,0.4-0.2,0.8-0.6,0.8h-20.1c-0.4,0-0.6-0.3-0.6-0.8v-0.3c0-0.4,0.2-0.6,0.6-0.6h20.1
		c0.4,0,0.6,0.2,0.6,0.6V172.9z"/>
	<path class="st5" d="M281.4,176c0,0.4-0.2,0.7-0.6,0.7h-20.1c-0.4,0-0.6-0.2-0.6-0.7v-0.3c0-0.4,0.2-0.7,0.6-0.7h20.1
		c0.4,0,0.6,0.3,0.6,0.7V176z"/>
	<path class="st5" d="M271.6,179.1c0,0.4-0.3,1-0.7,1h-10.2c-0.4,0-0.6-0.6-0.6-1v-0.3c0-0.4,0.2-0.8,0.6-0.8h10.2
		c0.4,0,0.7,0.4,0.7,0.8V179.1z"/>
</g>
<g>
	<path class="st5" d="M257.5,166.7c0,0.4-0.4,0.6-0.8,0.6h-20.1c-0.4,0-0.7-0.1-0.7-0.6v-0.3c0-0.4,0.3-0.8,0.7-0.8h20.1
		c0.4,0,0.8,0.4,0.8,0.8V166.7z"/>
	<path class="st5" d="M257.5,169.8c0,0.4-0.4,0.9-0.8,0.9h-20.1c-0.4,0-0.7-0.5-0.7-0.9v-0.3c0-0.4,0.3-0.9,0.7-0.9h20.1
		c0.4,0,0.8,0.5,0.8,0.9V169.8z"/>
	<path class="st5" d="M257.5,172.9c0,0.4-0.4,0.8-0.8,0.8h-20.1c-0.4,0-0.7-0.3-0.7-0.8v-0.3c0-0.4,0.3-0.6,0.7-0.6h20.1
		c0.4,0,0.8,0.2,0.8,0.6V172.9z"/>
	<path class="st5" d="M257.5,176c0,0.4-0.4,0.7-0.8,0.7h-20.1c-0.4,0-0.7-0.2-0.7-0.7v-0.3c0-0.4,0.3-0.7,0.7-0.7h20.1
		c0.4,0,0.8,0.3,0.8,0.7V176z"/>
	<path class="st5" d="M247.8,179.1c0,0.4-0.5,1-0.9,1h-10.2c-0.4,0-0.7-0.6-0.7-1v-0.3c0-0.4,0.3-0.8,0.7-0.8h10.2
		c0.4,0,0.9,0.4,0.9,0.8V179.1z"/>
</g>
<g>
	<g>
		<path class="st0" d="M233.7,253.1c0,2.8-2.7,5.2-5.4,5.2h-31.6c-2.8,0-5.1-2.5-5.1-5.2v-68.3c0-2.8,2.3-5.2,5.1-5.2h31.6
			c2.8,0,5.4,2.5,5.4,5.2V253.1z"/>
		<g>
			<path class="st0" d="M233.7,253.1c0,2.8-2.7,5.2-5.4,5.2h-31.6c-2.8,0-5.1-2.5-5.1-5.2v-68.3c0-2.8,2.3-5.2,5.1-5.2h31.6
				c2.8,0,5.4,2.5,5.4,5.2V253.1z"/>
			<rect x="194.6" y="189.4" class="st1" width="36.2" height="57.5"/>
			<circle class="st2" cx="212.5" cy="252.5" r="3"/>
			<path class="st2" d="M219.7,185.6c0,0.4-0.4,0.8-0.8,0.8h-15c-0.4,0-0.8-0.4-0.8-0.8v-0.1c0-0.4,0.4-0.8,0.8-0.8h15
				c0.4,0,0.8,0.4,0.8,0.8V185.6z"/>
		</g>
	</g>
</g>
<path class="st3" d="M226.9,198.1c0,0.8-0.7,1.5-1.5,1.5h-25.5c-0.8,0-1.5-0.7-1.5-1.5v-3c0-0.8,0.7-1.5,1.5-1.5h25.5
	c0.8,0,1.5,0.7,1.5,1.5V198.1z"/>
<path class="st4" d="M226.9,216.9c0,0.8-0.7,1.5-1.5,1.5h-25.5c-0.8,0-1.5-0.7-1.5-1.5v-14c0-0.8,0.7-1.5,1.5-1.5h25.5
	c0.8,0,1.5,0.7,1.5,1.5V216.9z"/>
<path class="st5" d="M226.9,228.8c0,0.8-0.5,1.5-1.4,1.5h-25.8c-0.8,0-1.4-0.6-1.4-1.5v-7.5c0-0.8,0.5-1.3,1.4-1.3h25.8
	c0.8,0,1.4,0.4,1.4,1.3V228.8z"/>
<path class="st5" d="M226.9,241.1c0,0.8-0.5,1.5-1.4,1.5h-25.8c-0.8,0-1.4-0.6-1.4-1.5v-7.5c0-0.8,0.5-1.3,1.4-1.3h25.8
	c0.8,0,1.4,0.4,1.4,1.3V241.1z"/>
</svg>
