<?xml version="1.0" encoding="utf-8"?>
<!-- Generator: Adobe Illustrator 21.1.0, SVG Export Plug-In . SVG Version: 6.00 Build 0)  -->
<svg version="1.1" id="Layer_1" xmlns="http://www.w3.org/2000/svg" xmlns:xlink="http://www.w3.org/1999/xlink" x="0px" y="0px"
	 viewBox="0 0 300 300" style="enable-background:new 0 0 300 300;" xml:space="preserve">
<style type="text/css">
	.st0{fill:none;stroke:#606060;stroke-miterlimit:10;}
	.st1{fill:#606060;}
	.st2{fill:#BE502D;}
	.st3{fill:#F0BE46;}
</style>
<circle class="st0" cx="-459.3" cy="-136" r="0"/>
<circle class="st1" cx="253.7" cy="126.7" r="11.3"/>
<circle class="st2" cx="217.3" cy="126.7" r="11.3"/>
<g>
	<path class="st2" d="M150,140.1H10.7V15.8H150V140.1z M20.9,130.7h118.8V25.2H20.9V130.7z"/>
</g>
<g>
	<rect x="10.7" y="163.9" class="st1" width="139.3" height="4.5"/>
	<rect x="10.7" y="176.7" class="st1" width="139.3" height="4.5"/>
	<rect x="10.7" y="189.5" class="st1" width="139.3" height="4.5"/>
	<rect x="10.7" y="202.3" class="st1" width="139.3" height="4.5"/>
	<rect x="10.7" y="215.1" class="st1" width="139.3" height="4.5"/>
	<rect x="10.7" y="228" class="st1" width="139.3" height="4.5"/>
	<rect x="10.7" y="240.8" class="st1" width="139.3" height="4.5"/>
	<rect x="10.7" y="253.6" class="st1" width="139.3" height="4.5"/>
	<rect x="10.7" y="266.4" class="st1" width="139.3" height="4.5"/>
	<rect x="10.7" y="279.2" class="st1" width="139.3" height="4.5"/>
</g>
<circle class="st2" cx="224" cy="219" r="43.8"/>
<polygon class="st3" points="161.5,161.3 161.5,286.2 286.4,161.3 "/>
<path class="st1" d="M-224.2,12.5c0,1.2-1,2.2-2.5,2.2H-255c-1.5,0-2.9-1-2.9-2.2V8.1c0-1.2,1.4-2.2,2.9-2.2h28.3
	c1.5,0,2.5,1,2.5,2.2V12.5z"/>
<g>
	<g>
		<g>
			<path class="st1" d="M229.2,108.6c-1.7,0-3.5,0-5.3,0c-1.8,0-3.6,0-5.3-0.1c-1.8,0-3.4,0-5,0c-1.3,0-2.7,0-4.2,0
				c-1.5,0-3,0.1-4.6,0.1c-1.5,0-3.1,0-4.7,0c-1.2,0-2.3,0-3.2,0l-0.1-1.4c2.6-0.2,4.6-0.5,6.3-0.8c2-0.4,3.5-1.2,4.5-2.2
				c1-1,1.7-2.4,2-4.1c0.3-1.6,0.5-3.6,0.5-6.1V20.9h-11.7c-3.7,0-6.7,0.3-9,1c-2.4,0.7-4.3,1.9-5.8,3.5c-1.4,1.6-2.5,3.7-3.3,6.2
				c-0.7,2.2-1.3,4.9-1.8,8l-1.9-0.1v-5.2c0-2.9,0-5.7-0.1-8.3c-0.1-2.4-0.3-5.1-0.5-8.1c3.5,0,6.9,0,10.3,0.1c3.7,0,7.3,0,10.8,0
				c3.5,0,6.5,0,9.1,0.1c2.6,0,5.1,0,7.3,0c2.2,0,5,0,8.4,0c3.4,0,6.8-0.1,10.3-0.1c3.5,0,7.2,0,11,0c3.4,0,6.9,0,10.4-0.1l-0.4,5.2
				c-0.2,1.9-0.3,3.8-0.4,5.6c-0.1,1.8-0.2,3.7-0.2,5.6c0,1.6,0,3.3,0,5.2l-1.9,0.1c-0.5-3.1-1.1-5.8-1.8-8
				c-0.7-2.5-1.8-4.6-3.1-6.2c-1.4-1.6-3.3-2.8-5.7-3.5c-2.3-0.7-5.3-1-8.9-1h-12v76.6c0,1.6,0.1,3,0.4,4.1c0.3,1.2,1,2.3,2.1,3.1
				c1,0.8,2.5,1.3,4.5,1.7c1.7,0.3,3.8,0.5,6.6,0.6l-0.1,1.6C231.7,108.7,230.5,108.7,229.2,108.6z"/>
		</g>
	</g>
	<g>
		<polygon class="st1" points="250.1,109.6 263.9,95.4 263.9,109.6 		"/>
	</g>
</g>
<circle class="st3" cx="180.8" cy="126.7" r="11.3"/>
</svg>
