<?xml version="1.0" encoding="utf-8"?>
<!-- Generator: Adobe Illustrator 21.0.2, SVG Export Plug-In . SVG Version: 6.00 Build 0)  -->
<svg version="1.1" id="Layer_1" xmlns="http://www.w3.org/2000/svg" xmlns:xlink="http://www.w3.org/1999/xlink" x="0px" y="0px"
	 viewBox="0 0 250 130" style="enable-background:new 0 0 250 130;" xml:space="preserve">
<style type="text/css">
	.st0{fill:#828282;}
	.st1{fill:#BF512F;}
	.st2{fill:#F2BC44;}
	.st3{fill-rule:evenodd;clip-rule:evenodd;fill:#363736;}
</style>
<path class="st0" d="M68.7,112.2H70l2.4,8.8l3.4-8.8h0.2l3.4,8.8l2.5-8.8h1.2l-3.4,12.2h-0.2l-3.5-9.3l-3.6,9.3
	c-0.2,0-0.2,0-0.3-0.1c-0.1-0.2-0.1-0.4-0.2-0.5c-0.2-0.7-0.4-1.4-0.6-2.1c-0.5-1.9-1.1-3.8-1.6-5.7
	C69.4,114.7,69.1,113.4,68.7,112.2z"/>
<path class="st0" d="M92.6,121.4l1,0.5c-0.8,1.6-2.2,2.7-4,2.7c-1.6,0.1-3-0.5-3.9-1.9c-1-1.4-1.2-3.2-0.6-4.7
	c0.6-1.4,1.8-2.6,3.3-2.8c1.3-0.2,2.7,0,3.8,0.9c1.2,1,1.7,2.4,1.7,3.9c-2.7,0-5.3,0-8,0c0,1.6,0.9,3.1,2.5,3.5
	c0.8,0.2,1.7,0.1,2.5-0.3C91.7,122.8,92.2,122.2,92.6,121.4z M92.6,119c-0.2-0.8-0.5-1.5-1.1-2c-0.6-0.5-1.5-0.8-2.3-0.8
	c-0.8,0-1.5,0.3-2.1,0.8c-0.6,0.5-0.9,1.2-1.1,1.9C88.2,119,90.4,119,92.6,119z"/>
<path class="st0" d="M96.1,124.4v-12.6h1.1v5.1c1.1-1.4,2.7-2.1,4.5-1.7c1.5,0.3,2.8,1.5,3.3,3c0.5,1.5,0.3,3.3-0.6,4.5
	c-1,1.3-2.5,2-4.1,1.9c-1.3-0.1-2.3-0.8-3.1-1.9c0,0.5,0,1,0,1.6c0,0.2-0.2,0.1-0.4,0.1C96.6,124.4,96.3,124.4,96.1,124.4z
	 M100.6,123.5c1.7,0,3.2-1.3,3.4-3c0.3-1.7-0.7-3.5-2.3-4.1c-1.6-0.6-3.5,0.2-4.2,1.7c-0.7,1.4-0.5,3.3,0.7,4.5
	C98.9,123.2,99.7,123.5,100.6,123.5z"/>
<path class="st0" d="M121.2,121l0.8,0.9c-0.5,0.4-1,0.9-1.5,1.2c0.8,0.8,1.6,1.6,2.3,2.4c-0.6,0-1.1,0-1.7,0l-1.6-1.7
	c-0.9,0.8-1.9,1.6-3.1,1.8c-1.2,0.3-2.6,0.2-3.5-0.7c-1-0.9-1-2.4-0.4-3.6c0.6-1.1,1.6-1.9,2.5-2.7c-0.7-0.9-1.6-1.9-1.5-3.1
	c0.1-1.4,1.5-2,2.7-2c1.3,0,2.7,0.9,2.6,2.3c-0.1,1.3-1.2,2.3-2.1,3c0.6,0.7,1.2,1.3,1.8,2c0.3,0.3,0.7,0.7,1,1
	c0.1,0.1,0.1,0.1,0.2,0.2c0.1,0.1,0.3-0.2,0.4-0.3C120.4,121.6,120.8,121.3,121.2,121z M113.7,123.9c1.4,1.8,3.8,0.1,5.1-1
	c-1-1.1-2-2.1-3-3.3C114.8,120.5,112.4,122.3,113.7,123.9z M117.5,116.3c0.3-0.8-0.4-1.3-1.1-1.4c-0.7-0.1-1.7,0.2-1.7,1.1
	c0,0.4,0.2,0.8,0.4,1.1c0.3,0.4,0.5,0.7,0.8,1.1C116.5,117.6,117.2,117,117.5,116.3z"/>
<path class="st0" d="M129.3,125.6v-12.4h2.5c1.4,0,3,0,4.3,0.6c1.4,0.7,2.5,2,3,3.5c0.9,3.1-0.3,7.1-3.6,8c-1.2,0.3-2.4,0.3-3.6,0.3
	C131.1,125.6,130.2,125.6,129.3,125.6z M130.5,124.4h1.4c1.3,0,2.9,0.1,4.1-0.6c1.4-0.8,2.2-2.4,2.2-4c0.1-1.7-0.5-3.3-1.8-4.3
	c-1.2-0.9-2.6-1-4-1c-0.6,0-1.2,0-1.7,0c-0.2,0-0.1,0-0.1,0.2c0,0.6,0,1.2,0,1.9c0,2,0,3.9,0,5.9C130.5,123,130.5,123.7,130.5,124.4
	z"/>
<path class="st0" d="M149,122.5l1,0.5c-0.8,1.6-2.2,2.7-4,2.7c-1.6,0.1-3-0.5-3.9-1.9c-1-1.4-1.2-3.2-0.6-4.8
	c0.6-1.4,1.8-2.6,3.3-2.9c1.3-0.2,2.7,0,3.8,0.9c1.2,1,1.7,2.4,1.7,3.9c-2.7,0-5.3,0-8,0c0,1.6,0.9,3.1,2.5,3.5
	c0.8,0.2,1.7,0.1,2.5-0.3C148,123.9,148.5,123.3,149,122.5z M149,120.1c-0.2-0.8-0.5-1.5-1.1-2c-0.6-0.5-1.5-0.8-2.3-0.8
	c-0.8,0-1.5,0.3-2.1,0.8c-0.6,0.5-0.9,1.2-1.1,2C144.6,120.1,146.8,120.1,149,120.1z"/>
<path class="st0" d="M160.5,117.5l-1.3,0.8c-1-0.6-2.3-1.1-3.7-0.9c-1.4,0.2-2.1,1.1-1.3,1.9c0.7,0.6,2,0.9,3.1,1.3
	c1.1,0.4,2.2,0.8,2.8,1.5c1.3,1.5-0.5,3.4-3.2,3.7c-1.5,0.2-3,0-4.2-0.5c-0.1-0.1-1.3-0.6-1.2-0.7c0.2-0.2,0.5-0.3,0.7-0.5
	c0.2-0.1,0.3-0.2,0.5-0.3c0.8,0.5,1.9,1,3.2,1c1.2,0,2.5-0.5,2.8-1.2c0.2-0.7-0.5-1.2-1.4-1.6c-1.2-0.4-2.5-0.7-3.5-1.3
	c-1.9-0.9-2.1-2.7-0.1-3.7C155.8,115.8,158.7,116.5,160.5,117.5z"/>
<path class="st0" d="M164,112.8c1.2,0,1.2,1.9,0,1.9C162.8,114.7,162.8,112.8,164,112.8z M163.4,116.5h1.1v9c-0.4,0-0.7,0-1.1,0
	c-0.1,0-0.1-0.1-0.1-0.2c0-0.7,0-1.3,0-2c0-1.9,0-3.8,0-5.7C163.4,117.3,163.4,116.9,163.4,116.5z"/>
<path class="st0" d="M174.8,116.5h1.1v7.2c0,1,0,2.2-0.5,3.1c-0.5,1.1-1.4,1.8-2.5,2c-1.2,0.3-2.5,0.3-3.7-0.2
	c-1.2-0.5-1.9-1.3-2.4-2.5c0.4,0,0.8,0,1.2,0c0.5,0.8,1.2,1.4,2.1,1.6c0.9,0.2,2,0.2,2.9-0.1c0.8-0.3,1.4-0.9,1.6-1.7
	c0.2-0.7,0.2-1.5,0.2-2.2c-1.1,1.4-2.9,2-4.6,1.6c-1.6-0.4-3-1.6-3.4-3.3c-0.4-1.7,0.1-3.5,1.4-4.7c1.3-1.2,3.3-1.5,4.8-0.7
	c0.6,0.3,1.2,0.8,1.7,1.4C174.8,117.6,174.8,117.1,174.8,116.5z M171.5,117.4c-1.7,0-3.2,1.2-3.5,3c-0.3,1.6,0.5,3.2,2,3.8
	c1.4,0.5,3.2,0.2,4.2-1c1-1.3,1-3.3,0-4.6C173.5,117.9,172.5,117.4,171.5,117.4z"/>
<path class="st0" d="M178.4,116.5h1.3v1.6c1.2-1.4,3.2-2.3,5.2-1.7c0.9,0.3,1.6,0.8,2,1.5c0.4,0.6,0.5,1.3,0.5,2
	c0.1,1.7,0,3.4,0,5.1c0,0.1,0,0.3,0,0.4h-1.3v-4.3c0-1.3,0.1-3.1-1.6-3.7c-1.8-0.7-3.9,0.4-4.5,1.9c-0.4,1-0.3,2.2-0.3,3.2
	c0,0.9,0,1.8,0,2.7c0,0.1,0,0.2,0,0.2c-0.4,0-0.8,0-1.3,0c-0.1,0-0.1-0.1-0.1-0.2c0-0.7,0-1.3,0-2c0-1.9,0-3.8,0-5.7
	C178.4,117.3,178.4,116.9,178.4,116.5z"/>
<path class="st1" d="M138.2,54.6c0-2,0-4,0-6.4c0,0-0.1,0-0.1,0C138.1,50.1,138.1,52.2,138.2,54.6C138.2,54.6,138.2,54.6,138.2,54.6
	z"/>
<path class="st1" d="M141.2,17c0.2,0.6,0.3,1,0.4,1.3c0.2-0.2,0.5-0.5,0.7-0.8C142.1,17.4,141.6,16.9,141.2,17z"/>
<path class="st1" d="M168.3,77.8C168.2,77.9,168.2,77.9,168.3,77.8C169.9,80.5,169.7,80.1,168.3,77.8z"/>
<path class="st1" d="M145.5,43.2c0-0.1,0-0.2,0-0.3c-0.1-0.1-0.2-0.3-0.3-0.4c-0.1-2.6-0.8-4.8-3.2-5.8c-0.2-0.1-7.1-10-9.3-13.4
	c3.4-1.2,6.5-2.7,8.7-4.8c-0.1-0.3-0.3-0.8-0.6-1.3c-0.1,0.1-0.3,0.3-0.4,0.6c0-0.4,0.1-0.7,0.3-0.8c-0.4-0.8-0.7-1.7-0.8-1.8
	c-0.4-0.4-0.8-0.8-1.2-1.2c0.4,1.2,0.7,2.4,1,3.6c-1.9-4.1-1.9-4.5-1.8-4.3c-2.2-2.1-2.6-3.5-1-4.1c0,0.1,0.1,0.1,0.1,0.2
	c0.3-0.3,0.7-0.6,1.3-0.8c1.3,3.9,2.2,6.5,2.7,8.1c0.3-0.2,0.5-0.4,0.5-0.8c0.4,1,0.7,1.4,0.7,1.6c0.2-0.3,0.4-0.5,0.6-0.8
	c-0.9,0.1-1.3-0.7-1.2-2.5c-0.8-2-1.7-4-2.5-6c0.1,0.2,1.6,3.2,2.5,5.6c0.1-0.6,0.2-1.3,0.3-2c0.4,1.5,0.8,2.9,1.2,4.4
	c1.4-2.3,2-5.3,1.5-9.2V4.2c-5.5,2.3-39.5,13.3-39.5,17.9c0,3.9-2.1,11.5,1.9,13.1c8.1,3.4,16.3,6.8,24.4,10.2
	c0.1-0.2,0.4-0.5,1-1.3c-0.4,0-0.9-0.2-1.4-0.6c0.3-0.2,0.6-0.5,0.9-0.7c-0.7,0.6-1.5,0.6-2.4,0.1c0.1-0.1,0.2-0.1,0.3-0.2
	c-0.8,0-1.6-0.2-2.5-0.7c2.1-2.3,4.6-3.8,7.6-4.5c-0.3,0.6-0.5,1.2-0.8,1.7c1.2-1,2-1.7,2.3-2.1c0.6,0.4,0.7,0.7-2.3,2.2
	c-0.3,0.5-0.6,1-0.9,1.3l0.3-0.2c-0.4,1.1-0.9,1.9-1.5,2.4c0.7-0.6,1.4-1.2,2.2-1.8c-0.1,0.6-0.1,1.1-0.3,1.5
	c0.7-0.8,1.5-1.7,2.5-2.8c-0.2,2-0.4,4-0.6,6c-0.6-2.4-3.6-0.4-4.3-0.1c2.1,0.9,4.3,1.8,6.4,2.7c0-2.8,0-4.8,0-5.4
	c0-0.4,0-1.1,0-0.1c0,0.6,0,0.6,0,0.4c0,1.1-0.1,2.3-0.1,3.4c-0.5-0.2-0.9-0.4-1.4-0.6c0.6-2.3,1.2-4.6,1.6-6.9c0,3.4,0,6.5,0,9.3
	c2.2,0.9,4.1,1.4,6.3,2.3c0-2.4,0.8-5,0.7-7.7c0.1,0.1,0.2,0.3,0.3,0.4C145.5,43.2,145.5,43.2,145.5,43.2z M141.4,38.2
	c0.1,0,0.3,0,0.6,0.1c0.1,1,0.2,1.9,0.4,2.9c-0.5-0.9-0.9-1.6-1-2.1C141.4,38.8,141.4,38.5,141.4,38.2z M134.5,10.1
	c0,0,0.9,1.4,1.9,3.2c3.1,3.1,3.2,5,0.6,5.8c0.6-2-1.8-5.7-2.5-7.5c0.4,0.3,0.8,0.7,1.1,1L134.5,10.1z M133.2,12.8
	c-0.3-0.6-0.5-1.2-0.8-1.7C132.6,11.3,132.8,12,133.2,12.8z M130,12.9c0-0.7,0.6-1.2,1.8-1.6c0.9,2.2,1.9,4.5,2.8,6.7
	c-1.2-0.8-2.1-1.6-2.8-2.3c0.8,1.5,1.7,3.1,2.1,4.5c-1.1-1.8-2.1-3.7-3.1-5.6c-0.5-0.6-0.7-1.1-0.8-1.6c-0.1-0.3-0.3-0.6-0.4-0.8
	C129.7,12.4,129.8,12.6,130,12.9z M128.9,12.5c0,2.9,3.1,6.6,2.9,8.7C129.7,18.3,128.2,14.5,128.9,12.5z M129.7,21.4
	c-1.8-2.3-3.4-4.7-4.9-7.2C125.9,15,129.5,21.3,129.7,21.4z M128.2,22.6c-0.2-0.9-0.4-1.8-0.7-2.7C129.9,21.3,130.1,22.2,128.2,22.6
	z M127.5,22.5c-2-2.2-3.7-4.7-5.2-7.3C123,15.9,127.1,18.8,127.5,22.5z M125.7,22.5c-2.1-2.5-2.7-4.4-4.2-6.9
	C123,17.9,124.4,20.2,125.7,22.5z M123.2,24.5c0-0.5,0.3-3.6,0.8-2.2C126.6,25.9,123.9,22.6,123.2,24.5z M122.8,21.7
	c-2.3-1.2-3.3-4.8-3.5-5.2C120.5,18.2,121.6,20,122.8,21.7z M121.8,23.5C121.7,23.5,121.7,23.5,121.8,23.5c-1.7-2-3.3-3.9-5-5.9
	C118.3,18.1,121.9,23.4,121.8,23.5z M116.3,17.8c-0.6,1.4,4.9,7.2,5.1,7.5c-2-2.1-3.9-4.3-5.6-6.6c1.2,2,2.4,4,3.8,5.9
	c-1.9-1.9-3.8-3.9-5.6-5.9C114.7,18.4,115.5,18.1,116.3,17.8z M118.6,26.3c-2.2,1.4-6.9-5.6-7.4-6.5C113.8,21.9,116.3,24,118.6,26.3
	z M110.4,20.2c1.6,1.7,3.3,3.4,5,5.1C112.7,25.3,109.8,19.5,110.4,20.2z M113.2,24.7c-0.6-0.3-5.3-2.6-6.3-2.6
	c-0.1-0.1-0.2-0.2-0.3-0.3C109.1,22.6,110.2,21.9,113.2,24.7z M111.3,24.8c-2.1-0.1-3-1.2-3.8-2.1C108.7,23.5,109.9,24.2,111.3,24.8
	z M106.6,31.4c0-3.5,6.2-2.6,9.4-3.4c-1.1,0.4-9.3,2-8.7,3.8c2,0,3.9-0.4,5.7-1.1c-1.5,1-2.9,2.1-4.3,3.2
	C107.3,35.5,106.6,31.7,106.6,31.4z M119,29.2c-2.6,2.1-5.3,4.1-8,5.9C110.8,35.2,118.1,29.7,119,29.2z M115.2,32.9
	c-0.8,0.7-1.7,1.2-2.5,1.7C113.5,34,114.3,33.4,115.2,32.9z M116,37.2c0.1-0.1,0.2-0.1,0.3-0.2c-0.7,0-1.4-0.2-2.1-0.6
	c0.1-0.1,0.2-0.2,0.4-0.3c-0.7,0.1-1.5,0-2.2-0.5c2.3-2.3,5-4.1,8-5.2c-0.3,0.3-1.2,1.2-1.8,1.8c0.1-0.1,0.2,0,0,0.1
	c-0.3,0.5-0.5,0.9-0.8,1.3c1.2-0.7,2.4-1.4,3.7-1.9c-0.5,1.1-0.9,2-1.4,2.7c0.4-0.3,0.8-0.5,1.1-0.8c-0.2,0.4-0.3,0.8-0.5,1.2
	c0.4-0.3,0.8-0.5,1.3-0.7c-0.6,0.7-1.3,1.3-1.9,1.8C118.8,37.7,117.5,38.1,116,37.2z M125.9,33.1c-2.8,1.6-5.9,3.8-7.8,5
	C120.6,36.3,123.2,34.6,125.9,33.1z M125.1,34.6c-1,0.9-2.3,1.7-3.8,2.5C122.3,36.2,123.6,35.4,125.1,34.6z M122.4,40
	C122,40.4,122.1,40.3,122.4,40c-0.2-0.1-0.3-0.1-0.4-0.2c0.3-0.2,0.5-0.4,0.8-0.6c0.7-1.1,1.6-2.4,0.4-1.5c-1.7,1.2-1.8,2.3-3.5,1
	c2.8-1.8,5.6-3.6,8.3-5.6c-2.2,2.7-3.7,4.5-4.6,5.6c0.8-0.6,1.7-1.2,2.5-1.8c-0.2,0.7-0.5,1.3-0.8,1.7c2.3-1.8,5.5-3.2,7.3-4.2
	c-2.6,1.6-5.2,3.2-7.8,4.9C124,40.1,123.3,40.3,122.4,40z M130.8,33.9l-4.2,2C133,29.5,126.8,34.9,130.8,33.9z M134.4,35.3
	c-1.7,0.9-3.3,1.8-5,2.7C130.8,35.1,132.5,34.2,134.4,35.3z M126.5,41.6c-0.4-0.1-0.6-0.3-0.8-0.5c-0.5,0-1-0.2-1.6-0.5
	c1.5-0.9,3-1.8,4.5-2.8c-0.1,0.4-0.3,0.7-0.4,1c0.8-0.3,1.8-0.6,2.9-1C129.6,39.2,128,40.4,126.5,41.6z M132.7,37.5l2.6-1.9
	c0.1,0.4,0.3,0.6,0.5,0.8C135.1,36.6,134.1,37,132.7,37.5z M119.4,27.7c4.3-1.7,9-2.9,13.1-4.4c3,4.6,5.8,8.9,8.4,12.8
	C133.7,33.4,126.6,30.6,119.4,27.7z M139.5,39.7c0.7,1.9,0.6,7.2,2,8.3C138.4,47,137.7,44.2,139.5,39.7z M142.1,47.6
	C142,46.2,142,47.2,142.1,47.6c-0.1-2-0.2-3.9-0.2-5.8C144.7,55.9,142.1,46.4,142.1,47.6z M143.3,44.7c0-1.1-0.1-2-0.2-2.9
	C143.5,42.7,143.4,43.8,143.3,44.7z"/>
<path class="st1" d="M118.6,25.4c0,0-0.3-0.4-0.8-0.9C118.1,24.8,118.3,25.1,118.6,25.4z"/>
<path class="st1" d="M127.2,32.5C125.6,33.3,123,33.6,127.2,32.5L127.2,32.5z"/>
<path class="st1" d="M138.1,13.1C138,12.8,138,12.7,138.1,13.1c0.2,0.3,0.4,0.5,0.7,0.8c-0.5-1.6-1.1-3.1-1.7-4.6
	C136.4,10.1,136.8,11.4,138.1,13.1z"/>
<path class="st1" d="M122.8,39.2c-0.2,0.3-0.4,0.5-0.5,0.7c0,0,0.1,0,0.1,0c0.2-0.2,0.5-0.6,1-1.2C123.2,38.9,123,39.1,122.8,39.2z"
	/>
<path class="st1" d="M119.9,34.6c-1.2,0.8-2.5,1.7-3.7,2.5C117.6,37,118.8,36.2,119.9,34.6z"/>
<path class="st1" d="M130,13.1c0.2,0.5,0.5,1,0.8,1.6c0.3,0.3,0.6,0.7,1,1.1c-0.7-1.1-1.3-2.2-1.8-2.9C130,13,130,13,130,13.1z"/>
<path class="st1" d="M117.7,33.7c-1.1,0.7-2.2,1.5-3.2,2.4C115.6,36,116.7,35.2,117.7,33.7z"/>
<path class="st1" d="M117.9,37.3c0.7-0.3,1.4-0.7,2.1-1.3c0.2-0.3,0.4-0.7,0.6-1.1C119.5,35.7,118.6,36.5,117.9,37.3z"/>
<path class="st1" d="M128.2,38.9c-2.3,0.9-3.1,1.6-2.5,2.2C126.7,41.1,127.5,40.4,128.2,38.9z"/>
<path class="st1" d="M133.4,40.6c-1.1,0.7-2.3,1.4-3.4,2.2C131.2,42.7,132.3,42,133.4,40.6z"/>
<path class="st1" d="M141.7,13.8c0,0.1,0,0.3,0,0.4c0.3,0.6,0.5,1.3,0.8,1.9C142.4,15.5,142.1,14.7,141.7,13.8z"/>
<path class="st1" d="M138.2,18c-0.2-1.4-1-3.2-1.8-4.7c-0.2-0.3-0.5-0.5-0.8-0.8l0.7,1.6C136.1,13.7,135.8,14.2,138.2,18z"/>
<path class="st1" d="M123.8,40c0.3-0.2,0.6-0.4,0.9-0.5c0.2-0.2,0.3-0.4,0.5-0.7C124.6,39.1,124.2,39.5,123.8,40z"/>
<path class="st1" d="M134.1,42.4c-0.6,0.7-1.1,1.3-1.5,1.7C133.3,44.2,133.8,43.6,134.1,42.4z"/>
<path class="st1" d="M141.2,7.3C142.6,12.3,141.1,7.1,141.2,7.3C141.3,7.9,141.2,7.3,141.2,7.3z"/>
<path class="st1" d="M133.4,10.6C135.6,17.1,133.3,10.3,133.4,10.6C133.6,11.3,133.4,10.6,133.4,10.6z"/>
<path class="st1" d="M120.3,16.1C120.6,16.7,120.3,15.9,120.3,16.1C120.4,16.2,120.3,16.1,120.3,16.1z"/>
<path class="st1" d="M113.1,25.8C116.1,26,113.2,26.2,113.1,25.8C113.5,25.8,113.1,25.8,113.1,25.8z"/>
<path class="st1" d="M109.7,26.3C103.5,25.3,115.8,25.3,109.7,26.3C109,26.2,110.3,26.2,109.7,26.3z"/>
<path class="st1" d="M111.1,27.2C108,27.3,108,27.3,111.1,27.2C110.3,27.5,110.6,27.2,111.1,27.2z"/>
<path class="st1" d="M106.6,24C108.7,25.8,107.4,25.2,106.6,24C107,24.4,106.6,24,106.6,24z"/>
<path class="st1" d="M106.6,26C108.8,27.4,107.2,26.7,106.6,26C107,26.2,106.6,26,106.6,26z"/>
<path class="st1" d="M106.6,27.8C110.5,28.5,106.9,27.9,106.6,27.8C107.2,27.9,106.6,27.8,106.6,27.8z"/>
<path class="st1" d="M138.8,46.8C139.8,41.1,138.5,47.9,138.8,46.8C138.9,46,138.8,46.8,138.8,46.8z"/>
<path class="st1" d="M143.3,38.8C142.9,41.3,143.5,38.3,143.3,38.8L143.3,38.8z"/>
<path class="st1" d="M138.7,37.5C138.8,37.1,139.2,36.8,138.7,37.5C138.7,37.4,138.7,37.5,138.7,37.5z"/>
<path class="st1" d="M136.9,41.7c0.2-0.9,0.4-1.9,0.7-2.8C137.4,39.8,137.2,40.7,136.9,41.7C136.4,40.2,137.2,40.5,136.9,41.7z"/>
<path class="st1" d="M124.8,31.9C125.7,30.5,124.1,32.7,124.8,31.9C124.9,31.8,124.7,32,124.8,31.9z"/>
<path class="st1" d="M123.5,31C124.6,29.5,118.3,35.8,123.5,31C123.5,31,122.7,31.6,123.5,31z"/>
<path class="st1" d="M121.4,30.2C121.4,30,119.5,32.9,121.4,30.2C121.4,30.2,121.1,30.6,121.4,30.2z"/>
<path class="st1" d="M119.7,29.5C119.8,29.4,118.6,30.7,119.7,29.5C119.7,29.5,119.5,29.7,119.7,29.5z"/>
<path class="st1" d="M119.8,25.9C119.4,25.3,119.8,25.9,119.8,25.9C119.6,25.7,119.8,25.9,119.8,25.9z"/>
<path class="st1" d="M122.5,24.7C122.5,24.7,122.8,24.7,122.5,24.7C122.5,24.7,122.5,24.7,122.5,24.7z"/>
<path class="st1" d="M125.8,23.5C125.8,23.5,125.8,23.5,125.8,23.5C125.7,23.4,125.8,23.5,125.8,23.5z"/>
<path class="st1" d="M126.8,23.1C126.3,21.9,126.8,23.2,126.8,23.1C126.7,23,126.8,23.1,126.8,23.1z"/>
<path class="st1" d="M130.5,21.6C130.5,21.3,130.5,21.7,130.5,21.6C130.5,21.6,130.5,21.6,130.5,21.6z"/>
<path class="st1" d="M134.5,20.1C133.9,17.8,134.5,19.9,134.5,20.1C134.4,19.7,134.5,20.1,134.5,20.1z"/>
<path class="st1" d="M138.9,18.3C138.5,14.3,138.9,18.4,138.9,18.3C138.8,17.7,138.9,18.3,138.9,18.3z"/>
<path class="st1" d="M143.3,7.1C143.3,6.5,143.2,6,143.3,7.1L143.3,7.1z"/>
<path class="st2" d="M111.8,17c0,2.2,0,4.4,0,6.9c0,0,0.1,0,0.1,0c0-2,0-4.4,0-7C111.8,17,111.8,17,111.8,17z"/>
<path class="st2" d="M116.6,31.6c1.1-0.7,2.3-1.4,3.4-2.2C118.8,29.5,117.7,30.2,116.6,31.6z"/>
<path class="st2" d="M143.1,36.9c-8.2-3.4-16.4-6.8-24.7-10.2c0,0.1-0.3,0.5-1,1.3c0.4,0,0.9,0.2,1.4,0.6c-0.3,0.2-0.6,0.5-0.9,0.7
	c0.7-0.6,1.5-0.6,2.4-0.1c-0.1,0.1-0.2,0.1-0.3,0.2c0.8,0,1.6,0.2,2.5,0.7c-2.1,2.3-4.6,3.8-7.6,4.5c0.3-0.6,0.5-1.2,0.8-1.7
	c-1.2,1-2,1.7-2.3,2.1c-0.6-0.4-0.7-0.7,2.3-2.2c0.3-0.5,0.6-1,0.9-1.3l-0.3,0.2c0.4-1.1,0.9-1.9,1.5-2.4c-0.7,0.6-1.4,1.2-2.2,1.8
	c0.1-0.6,0.1-1.1,0.3-1.5c-0.7,0.8-1.5,1.7-2.5,2.8c0.2-2,0.4-4,0.6-6c0.6,2.5,3.8,0.2,4.3,0.1c-2.2-0.9-4.3-1.8-6.5-2.7
	c0,2.9,0,4.9,0,5.4c0,0.4,0,1.1,0,0.1c0-0.6,0-0.6,0-0.4c0-1.1,0.1-2.3,0.1-3.4c0.5,0.2,0.9,0.4,1.4,0.6c-0.6,2.3-1.2,4.6-1.6,6.9
	c0-3.3,0-6.4,0-9.3c-2.2-0.9-4.3-1.8-6.5-2.7c0,2.4-0.6,8.4-0.5,8.5c0.1,2.6,0.8,4.8,3.1,5.8c0.2,0.1,7.2,10,9.4,13.4
	c-3.4,1.2-6.5,2.7-8.7,4.8c0.1,0.3,0.4,0.8,0.6,1.3c0.1-0.1,0.3-0.3,0.4-0.6c0,0.4-0.1,0.7-0.3,0.8c0.4,0.8,0.7,1.7,0.8,1.8
	c0.4,0.4,0.8,0.8,1.2,1.2c-0.4-1.2-0.7-2.4-1-3.6c1.9,4.2,1.9,4.5,1.8,4.3c2.2,2.1,2.6,3.5,1,4.1c0-0.1-0.1-0.1-0.1-0.2
	c-0.3,0.3-0.7,0.6-1.3,0.8c-1.3-3.9-2.2-6.5-2.7-8.1c-0.3,0.2-0.5,0.4-0.5,0.8c-0.4-1-0.7-1.5-0.8-1.7c-0.2,0.3-0.4,0.5-0.6,0.8
	c0.9-0.1,1.3,0.7,1.2,2.5c0.8,2,1.7,4,2.5,6c-0.1-0.2-1.6-3.2-2.5-5.6c-0.1,0.6-0.2,1.3-0.3,2.1c-0.4-1.5-0.8-3-1.2-4.4
	c-1.4,2.3-2,5.3-1.5,9.3V68c5.4-2.3,39.7-13.9,39.7-18.5c0-1.7,0.4-4.2,0.5-6.5c0-0.1,0-0.1,0-0.2C145.6,40.2,145.2,37.8,143.1,36.9
	z M139.1,37c0.1-0.1-7.1,5.5-8,5.9C133.6,40.9,136.3,38.9,139.1,37z M134.8,39.3c0.8-0.7,1.7-1.2,2.5-1.7
	C136.6,38.2,135.7,38.8,134.8,39.3z M134.1,35c-0.1,0.1-0.2,0.1-0.3,0.2c0.7,0,1.4,0.2,2.1,0.6c-0.1,0.1-0.2,0.2-0.4,0.3
	c0.7-0.1,1.5,0,2.2,0.5c-2.3,2.3-5,4.1-8,5.2c0.3-0.3,1.2-1.2,1.8-1.8c-0.1,0.1-0.2,0,0-0.1c0.3-0.5,0.5-0.9,0.8-1.3
	c-1.2,0.7-2.4,1.4-3.7,1.9c0.5-1.1,0.9-2,1.4-2.7c-0.4,0.3-0.8,0.5-1.1,0.8c0.2-0.4,0.3-0.8,0.5-1.2c-0.4,0.3-0.8,0.5-1.3,0.7
	c0.6-0.7,1.3-1.3,1.9-1.8C131.2,34.5,132.5,34.1,134.1,35z M124.1,39.1c2.8-1.6,5.9-3.8,7.8-5C129.5,35.9,126.8,37.6,124.1,39.1z
	 M124.9,37.6c1-0.9,2.3-1.7,3.8-2.5C127.7,36,126.4,36.8,124.9,37.6z M127.6,32.2C128,31.8,127.9,31.9,127.6,32.2
	c0.2,0.1,0.3,0.1,0.4,0.2c-0.3,0.2-0.5,0.4-0.8,0.6c-0.7,1.1-1.6,2.4-0.4,1.5c1.7-1.2,1.8-2.3,3.5-1c-2.8,1.8-5.6,3.6-8.3,5.6
	c2.2-2.7,3.7-4.5,4.6-5.6c-0.8,0.6-1.7,1.2-2.5,1.8c0.2-0.7,0.5-1.3,0.8-1.7c-2.3,1.8-5.5,3.2-7.3,4.2c2.6-1.6,5.2-3.2,7.8-4.9
	C126,32.1,126.8,31.9,127.6,32.2z M119.3,38.3c1.4-0.7,2.8-1.3,4.2-2C117,42.7,123.2,37.3,119.3,38.3z M115.6,36.9
	c1.7-0.9,3.3-1.8,5-2.7C119.2,37.1,117.5,38,115.6,36.9z M123.6,30.6c0.4,0.1,0.6,0.3,0.8,0.5c0.5,0,1,0.2,1.6,0.5
	c-1.5,0.9-3,1.8-4.5,2.8c0.1-0.4,0.3-0.7,0.4-1c-0.8,0.3-1.8,0.6-2.9,1C120.5,33,122,31.8,123.6,30.6z M117.3,34.7
	c-0.9,0.6-1.7,1.3-2.6,1.9c-0.1-0.4-0.3-0.6-0.5-0.8C114.9,35.6,116,35.2,117.3,34.7z M108,24.6C108,26,108,25,108,24.6l0.2,5.8
	C105.3,16.3,108,25.8,108,24.6z M106.7,27.5c0,1.1,0.1,2,0.2,2.9C106.5,29.5,106.6,28.4,106.7,27.5z M108.6,34c-0.1,0-0.3,0-0.6-0.1
	c-0.1-1-0.2-1.9-0.4-2.9c0.5,0.9,0.9,1.6,1,2.1C108.6,33.4,108.6,33.7,108.6,34z M108.5,24.3c3.1,0.9,3.8,3.7,2,8.3
	C109.8,30.7,109.9,25.4,108.5,24.3z M109.2,36.1c7,2.9,13.9,5.7,20.9,8.6c-4.2,1.7-8.6,2.8-12.5,4.2C114.5,44.3,111.8,40,109.2,36.1
	z M126.8,47.7c0,0.5-0.3,3.6-0.8,2.2C123.4,46.3,126.1,49.6,126.8,47.7z M122.5,52.3c-2.3-1.4-2.5-2.3-0.7-2.7
	C122,50.5,122.2,51.4,122.5,52.3z M115.5,62.1c0,0-0.9-1.4-1.9-3.2c-3.1-3.1-3.2-5-0.6-5.8c-0.6,2,1.8,5.7,2.5,7.5
	c-0.4-0.3-0.8-0.7-1.1-1C114.8,60.5,115.1,61.3,115.5,62.1z M116.8,59.4c0.3,0.6,0.5,1.2,0.8,1.7C117.5,60.9,117.2,60.2,116.8,59.4z
	 M120,59.3c0,0.7-0.6,1.2-1.8,1.6c-0.9-2.2-1.9-4.5-2.8-6.7c1.2,0.8,2.1,1.6,2.8,2.3c-0.8-1.5-1.7-3.1-2.1-4.5
	c1.1,1.8,2.1,3.7,3.1,5.6c0.5,0.6,0.7,1.1,0.8,1.6c0.1,0.3,0.3,0.5,0.4,0.8C120.3,59.8,120.2,59.6,120,59.3z M121.1,59.7
	c0-2.9-3.1-6.6-2.9-8.7C120.3,53.9,121.8,57.7,121.1,59.7z M120.4,50.8c1.8,2.3,3.4,4.7,4.9,7.2C124.2,57.2,120.5,50.9,120.4,50.8z
	 M122.5,49.7c2,2.2,3.7,4.7,5.2,7.3C127,56.3,122.9,53.4,122.5,49.7z M124.3,49.7c2.1,2.5,2.7,4.4,4.2,6.9
	C127.1,54.3,125.7,52,124.3,49.7z M127.2,50.5c2.3,1.2,3.3,4.8,3.5,5.2C129.6,54,128.4,52.2,127.2,50.5z M128.3,48.7
	C128.3,48.7,128.3,48.7,128.3,48.7c1.7,2,3.3,3.9,5,5.9C131.7,54.1,128.1,48.8,128.3,48.7z M133.7,54.4c0.6-1.4-4.9-7.2-5.1-7.5
	c2,2.1,3.9,4.3,5.6,6.6c-1.2-2-2.4-4-3.8-5.9c1.9,1.9,3.8,3.9,5.6,5.9C135.3,53.8,134.5,54.1,133.7,54.4z M131.4,45.9
	c2.2-1.4,6.9,5.6,7.4,6.5C136.2,50.3,133.7,48.2,131.4,45.9z M139.6,52c-1.6-1.7-3.3-3.4-5-5.1C137.3,46.9,140.2,52.7,139.6,52z
	 M136.8,47.5c0.6,0.3,5.3,2.6,6.3,2.6c0.1,0.1,0.2,0.2,0.3,0.3C140.9,49.6,139.9,50.3,136.8,47.5z M138.8,47.4
	c2.1,0.1,3,1.2,3.8,2.1C141.4,48.7,140.1,48,138.8,47.4z M134,44.1c1.1-0.4,9.3-2,8.7-3.8c-2,0-3.9,0.4-5.7,1.1
	c1.5-1,2.9-2.1,4.3-3.2c0,0,0,0,0,0c1.4-1.6,2.1,2.3,2.1,2.6C143.4,44.2,137.2,43.3,134,44.1z"/>
<path class="st2" d="M122.8,39.7C124.5,38.9,127,38.6,122.8,39.7L122.8,39.7z"/>
<path class="st2" d="M131.4,46.8c0,0,0.3,0.4,0.8,0.9C131.9,47.4,131.7,47.1,131.4,46.8z"/>
<path class="st2" d="M115.9,29.8c0.6-0.7,1.1-1.3,1.5-1.7C116.7,28,116.2,28.6,115.9,29.8z"/>
<path class="st2" d="M111.8,54.2c0.2,1.4,1,3.2,1.8,4.7c0.2,0.3,0.5,0.5,0.8,0.8c-0.2-0.5-0.5-1.1-0.7-1.6
	C113.9,58.5,114.2,58,111.8,54.2z"/>
<path class="st2" d="M130.1,37.6c1.2-0.8,2.5-1.7,3.7-2.5C132.4,35.2,131.2,36,130.1,37.6z"/>
<path class="st2" d="M132.1,34.8c-0.7,0.3-1.4,0.7-2.1,1.3c-0.2,0.3-0.4,0.7-0.6,1.1C130.5,36.5,131.4,35.7,132.1,34.8z"/>
<path class="st2" d="M121.8,33.3c2.3-0.9,3.1-1.6,2.5-2.2C123.4,31.1,122.5,31.8,121.8,33.3z"/>
<path class="st2" d="M127.2,33c0.2-0.3,0.4-0.5,0.5-0.7c0,0-0.1,0-0.1,0c-0.2,0.2-0.5,0.6-1,1.2C126.8,33.3,127,33.1,127.2,33z"/>
<path class="st2" d="M120,59.1c-0.2-0.5-0.5-1-0.8-1.6c-0.3-0.3-0.6-0.7-1-1.1c0.7,1.1,1.3,2.2,1.8,2.9C120,59.2,120,59.2,120,59.1z
	"/>
<path class="st2" d="M126.2,32.2c-0.3,0.2-0.6,0.4-0.9,0.5c-0.2,0.2-0.3,0.4-0.5,0.7C125.4,33.1,125.8,32.7,126.2,32.2z"/>
<path class="st2" d="M108.9,55.2c-0.2-0.6-0.3-1-0.4-1.3c-0.2,0.2-0.5,0.5-0.7,0.8C107.9,54.8,108.4,55.3,108.9,55.2z"/>
<path class="st2" d="M132.3,38.5c1.1-0.7,2.2-1.5,3.2-2.4C134.4,36.2,133.3,37,132.3,38.5z"/>
<path class="st2" d="M111.9,59.1C112,59.4,112,59.5,111.9,59.1c-0.2-0.3-0.4-0.5-0.7-0.8c0.5,1.6,1.1,3.1,1.7,4.6
	C113.6,62.1,113.3,60.8,111.9,59.1z"/>
<path class="st2" d="M108.3,58.4c0-0.1,0-0.3,0-0.4c-0.3-0.6-0.5-1.3-0.8-1.9C107.7,56.7,107.9,57.5,108.3,58.4z"/>
<path class="st2" d="M108.8,64.9C107.4,59.9,108.9,65.1,108.8,64.9C108.7,64.3,108.8,64.9,108.8,64.9z"/>
<path class="st2" d="M116.6,61.6C114.5,55.1,116.7,61.9,116.6,61.6C116.4,60.9,116.6,61.6,116.6,61.6z"/>
<path class="st2" d="M129.7,56.1C129.4,55.5,129.7,56.3,129.7,56.1C129.6,56,129.7,56.1,129.7,56.1z"/>
<path class="st2" d="M136.9,46.4C134,46.2,136.8,46,136.9,46.4C136.5,46.4,136.9,46.4,136.9,46.4z"/>
<path class="st2" d="M140.3,45.9C146.5,46.9,134.2,46.9,140.3,45.9C141,46,139.7,46,140.3,45.9z"/>
<path class="st2" d="M139,45C142,44.9,142,44.9,139,45C139.7,44.7,139.4,45,139,45z"/>
<path class="st2" d="M143.4,48.2C141.3,46.4,142.6,47,143.4,48.2C143,47.8,143.4,48.2,143.4,48.2z"/>
<path class="st2" d="M143.4,46.2C141.2,44.8,142.8,45.5,143.4,46.2C143,46,143.4,46.2,143.4,46.2z"/>
<path class="st2" d="M143.4,44.4C139.5,43.7,143.1,44.3,143.4,44.4C142.9,44.3,143.4,44.4,143.4,44.4z"/>
<path class="st2" d="M111.2,25.4C110.2,31.1,111.5,24.3,111.2,25.4C111.1,26.2,111.2,25.4,111.2,25.4z"/>
<path class="st2" d="M106.7,33.4C107.2,30.9,106.6,33.9,106.7,33.4L106.7,33.4z"/>
<path class="st2" d="M111.3,34.7C111.2,35.2,110.8,35.4,111.3,34.7C111.3,34.8,111.3,34.7,111.3,34.7z"/>
<path class="st2" d="M113.1,30.5c-0.2,0.9-0.4,1.9-0.7,2.8C112.6,32.4,112.9,31.5,113.1,30.5C113.6,32,112.8,31.7,113.1,30.5z"/>
<path class="st2" d="M125.2,40.3C124.3,41.7,125.9,39.5,125.2,40.3C125.1,40.4,125.3,40.2,125.2,40.3z"/>
<path class="st2" d="M126.6,41.2C125.4,42.7,131.7,36.4,126.6,41.2C126.6,41.2,127.3,40.6,126.6,41.2z"/>
<path class="st2" d="M128.6,42C128.6,42.2,130.5,39.3,128.6,42C128.6,42,128.9,41.6,128.6,42z"/>
<path class="st2" d="M130.3,42.7C130.3,42.8,131.4,41.5,130.3,42.7C130.3,42.7,130.5,42.5,130.3,42.7z"/>
<path class="st2" d="M130.3,46.3C130.7,46.9,130.3,46.3,130.3,46.3C130.4,46.5,130.3,46.3,130.3,46.3z"/>
<path class="st2" d="M127.5,47.5C127.5,47.5,127.3,47.5,127.5,47.5C127.5,47.5,127.5,47.5,127.5,47.5z"/>
<path class="st2" d="M124.3,48.7C124.3,48.7,124.2,48.7,124.3,48.7C124.3,48.8,124.3,48.7,124.3,48.7z"/>
<path class="st2" d="M123.3,49.1C123.7,50.3,123.3,49,123.3,49.1C123.3,49.2,123.3,49.1,123.3,49.1z"/>
<path class="st2" d="M119.5,50.6C119.5,50.9,119.5,50.5,119.5,50.6C119.5,50.6,119.5,50.6,119.5,50.6z"/>
<path class="st2" d="M115.5,52.1C116.1,54.4,115.5,52.3,115.5,52.1C115.6,52.5,115.5,52.1,115.5,52.1z"/>
<path class="st2" d="M111.1,53.9C111.5,57.9,111.1,53.8,111.1,53.9C111.2,54.5,111.1,53.9,111.1,53.9z"/>
<path class="st2" d="M106.7,65.1C106.8,65.7,106.8,66.2,106.7,65.1L106.7,65.1z"/>
<g>
	<path class="st3" d="M0.1,98.4c0.8-1.6,3.3-1.2,4.5-0.3c3.7,2.8,7.9,3.7,12.3,3.5c2.7-0.1,5.5-0.8,8.1-1.4c1.4-0.3,2.5-1.3,2.9-2.9
		c0.5-1.8-0.4-3.7-2.6-4.3c-2.9-0.8-6-1.1-9-1.6c-2.8-0.5-5.7-1-8.4-1.7c-1.2-0.3-2.4-1-3.5-1.8c-3-2.2-3.3-6-0.7-8.8
		c2-2.1,4.7-3,7.4-3.5c5.5-1.1,10.9-0.5,16.3,1.2c0.8,0.2,1.5,0.6,2.1,1.2c0.4,0.4,0.6,1.2,0.5,1.8c-0.1,0.4-0.9,0.9-1.3,0.9
		c-1.1-0.1-2.3-0.2-3.3-0.7c-5-2.6-10-2.8-15.2-1.1c-0.2,0.1-0.4,0.2-0.6,0.2c-1.4,0.7-2.8,1.6-2.8,3.5c0,1.9,1.5,2.8,2.9,3.1
		c3,0.7,6,1.2,9,1.6c3.4,0.4,6.7,0.7,9.8,2.2c3,1.4,4.4,3.6,4.2,6.5c-0.1,2.4-1.5,4-3.4,5.2c-2.6,1.7-5.5,2.3-8.4,2.7
		c-5.6,0.7-11.1,0.6-16.3-1.8c-1.6-0.7-3.7-1.4-4.5-3C0,99,0,98.7,0.1,98.4z"/>
	<path class="st3" d="M219.4,82c0,2.6,0,4.8,0,6.9c0,4.7,0,9.3-0.1,14c0,1-0.1,2-1.3,2c-1.3,0-1.4-0.9-1.4-1.9
		c0-8.1,0.1-16.2,0.1-24.3c0-2.7,1.8-3.8,4.2-2.4c0.4,0.2,0.7,0.6,1.1,0.9c7.8,6.7,15.6,13.5,23.4,20.2c0.4,0.4,0.8,0.7,1.4,1.2
		c0-0.6,0.1-1.1,0.1-1.5c0-6.2,0.1-12.5,0.1-18.7c0-0.5-0.1-1,0.1-1.4c0.3-0.5,0.9-1.1,1.3-1.1c0.5,0,1,0.6,1.3,1.1
		c0.2,0.3,0.2,17.2,0.1,25.1c0,0.9-0.5,2.2-1.1,2.5c-1.2,0.7-2.6,0.6-3.8-0.4c-3.8-3.3-7.6-6.6-11.5-9.9c-4.4-3.8-8.7-7.5-13.1-11.3
		C220.3,82.7,220.1,82.5,219.4,82z"/>
	<path class="st3" d="M142.9,81.4c0,1.4,0,2.3,0,3.3c0,6.1,0,12.3,0,18.4c0,1.1-0.3,1.8-1.5,1.7c-1.2-0.1-1.4-0.6-1.4-1.8
		c0.1-8.1,0.1-16.2,0.2-24.3c0-1-0.4-2.5,0.9-2.8c1.4-0.4,2.8-0.5,4.1,0.8c3.3,3.3,10.9,10.6,11.4,11.1c0.5-0.4,8.3-7.8,11.7-11.2
		c1.2-1.2,2.6-1.1,3.9-0.7c0.4,0.1,0.8,1.2,0.8,1.9c0,7.6-0.2,23.9-0.2,24.5c0,2.2-0.3,2.5-2.4,2.5c-2,0-2.3-0.3-2.3-2.5
		c0.1-6.3,0.2-20.5,0.2-21.6c-0.6,0.5-0.9,0.7-1.2,1c-3.2,3-6.3,6.1-9.5,9.1c-1.6,1.5-3.4,1.5-5,0C149.8,88.1,143.6,82,142.9,81.4z"
		/>
	<path class="st3" d="M36.4,96.7c-1.2-0.5-3,0.3-3-1.7c0-1.8,1.7-1.1,2.9-1.5c0-0.5,0.1-10.9,0.1-15.6c0-2.1,0.3-2.4,2.4-2.4
		c2.1,0,2.4,0.3,2.4,2.3c0,4.6,0,15,0,15.7c6.7,0,13.2,0,20,0c0-0.6,0-11.2,0-16c0-1.7,0.4-2,2.4-2c2,0,2.3,0.3,2.3,2
		c0,8.4,0,16.7,0,25.1c0,1.7-0.4,2-2.4,2c-2,0-2.3-0.3-2.4-2.1c0-2,0-3.9,0-6c-6.7,0-13.2,0-20,0c0,1.9,0,3.9,0,5.8
		c0,1.9-0.4,2.3-2.5,2.3c-1.9,0-2.3-0.3-2.3-2.2C36.4,100.6,36.4,98.7,36.4,96.7z"/>
	<path class="st3" d="M178.6,96.6c-0.8-0.1-1.4,0-1.9-0.2c-0.4-0.2-1-0.8-1-1.1c0-0.5,0.5-1.2,1-1.3c0.9-0.2,1.8-0.3,2.7-0.2
		c1,0.1,1.5-0.3,2.1-1.1c3.6-5.3,7.2-10.5,10.8-15.7c1.3-1.9,3.9-1.9,5.3,0c5.6,8.2,11.2,16.3,16.8,24.5c0.5,0.8,1.3,1.6,0.5,2.6
		c-0.6,0.7-2.8,0.8-3.5,0c-1.2-1.3-2.2-2.6-3.4-4.2c-2-2.7-3.7-3.7-6.8-3.6c-5.8,0.3-11.7,0.1-17.5,0.1c-1.1,0-5.2,5.1-6.6,7
		c-0.3,0.4-0.6,0.9-1.1,1c-0.5,0.1-1.3,0.1-1.6-0.2c-0.3-0.3-0.2-1.2,0.1-1.6C175.6,101,178.3,97.1,178.6,96.6z M193.9,79.3
		c-3.3,4.9-6.5,9.5-9.8,14.3c6.6,0,12.9,0,19.5,0C200.3,88.7,197.2,84.1,193.9,79.3z"/>
	<path class="st3" d="M83.9,104.4c-3.8,0-7.3-1-10.3-3.4c-6.8-5.3-7.3-15-1.2-21c5.6-5.5,15.1-6.4,21.5-2.1
		c8.1,5.4,8.4,16.7,0.7,22.8C91.7,103.1,87.9,104.4,83.9,104.4z M83.9,101.6c6.7,0,12.2-5.4,12.2-12c0-6.5-5.1-11.7-11.6-11.8
		c-6.6,0-12.3,5.6-12.3,12.2C72.2,96.3,77.5,101.6,83.9,101.6z"/>
	<path class="st3" d="M132.7,85.1c0-2.7,0-5.4,0-8.1c0-1,0.1-1.9,1.4-2c1.3,0,1.4,0.9,1.4,1.9c0,5.5,0.1,11,0.1,16.5
		c0,3.1-1.5,5.5-3.9,7.4c-3.9,3-8.4,3.8-13.2,3.7c-3.3-0.1-6.6-0.9-9.6-2.4c-3.8-2-5.7-5-5.7-9.5c0-4.9-0.2-9.8-0.2-14.6
		c0-1.9,0.4-2.2,2.4-2.3c2.1,0,2.4,0.2,2.4,2.2c0.1,5,0.2,10,0.2,14.9c0,3.1,1.3,5.2,3.8,6.8c5.4,3.4,14.3,2.6,19-1.8
		c1.4-1.3,2.2-2.8,2.1-4.8c0-2.6,0-5.3,0-7.9C132.9,85.1,132.8,85.1,132.7,85.1z"/>
</g>
<path class="st3" d="M104.3,28.8"/>
<g>
	<path class="st2" d="M102.9,70.8C102.9,68.3,102.3,69.2,102.9,70.8C102.9,70.3,102.8,70.6,102.9,70.8z"/>
	<path class="st2" d="M102.9,59.7C102.3,61.4,102.9,62.3,102.9,59.7C102.8,59.9,102.9,60.3,102.9,59.7z"/>
	<path class="st2" d="M102.9,62.9C102.3,64.6,102.9,65.4,102.9,62.9C102.8,63.1,102.9,63.4,102.9,62.9z"/>
	<path class="st2" d="M102.9,66.1C102.3,67.7,102.9,68.6,102.9,66.1C102.8,66.3,102.9,66.6,102.9,66.1z"/>
	<path class="st2" d="M102.6,71.7C104.3,71.9,104.7,70.9,102.6,71.7C103,71.8,103,71.6,102.6,71.7z"/>
	<path class="st2" d="M102.9,24.6C102.3,26.3,102.9,27.2,102.9,24.6C102.8,24.8,102.9,25.1,102.9,24.6z"/>
	<path class="st2" d="M102.9,18.3C102.3,19.9,102.9,20.8,102.9,18.3C102.8,18.5,102.9,18.8,102.9,18.3z"/>
	<path class="st2" d="M102.9,30.9C102.3,32.6,102.9,33.5,102.9,30.9C102.8,31.1,102.9,31.4,102.9,30.9z"/>
	<path class="st2" d="M102.9,43.7C102.1,45.4,102.9,46.6,102.9,43.7C102.7,44,102.9,44.3,102.9,43.7z"/>
	<path class="st2" d="M102.9,47.1C102.1,48.8,102.9,50,102.9,47.1C102.7,47.5,102.9,47.7,102.9,47.1z"/>
	<path class="st2" d="M102.9,40.3C102.1,42,102.9,43.2,102.9,40.3C102.7,40.7,102.9,40.9,102.9,40.3z"/>
	<path class="st2" d="M102.9,36.9C102.1,38.6,102.9,39.8,102.9,36.9C102.7,37.2,102.9,37.5,102.9,36.9z"/>
	<path class="st2" d="M102.9,50.5C102.1,52.2,102.9,53.4,102.9,50.5C102.7,50.8,102.9,51.1,102.9,50.5z"/>
	<path class="st2" d="M102.9,53.4C102.3,55.1,102.9,56,102.9,53.4C102.8,53.6,102.9,53.9,102.9,53.4z"/>
	<path class="st2" d="M102.9,56.6C102.3,58.2,102.9,59.1,102.9,56.6C102.8,56.8,102.9,57.1,102.9,56.6z"/>
	<path class="st2" d="M120.8,64.2C122.4,64.3,122.8,63.3,120.8,64.2C121.2,64.2,121.2,64,120.8,64.2z"/>
	<path class="st2" d="M105.2,70.7C106.9,70.8,107.2,69.8,105.2,70.7C105.6,70.7,105.6,70.5,105.2,70.7z"/>
	<path class="st2" d="M144.3,55.2C146.3,54.3,145.6,53.8,144.3,55.2C144.7,55,144.7,54.7,144.3,55.2z"/>
	<path class="st2" d="M107.8,69.6C109.4,69.7,109.8,68.7,107.8,69.6C108.2,69.6,108.2,69.4,107.8,69.6z"/>
	<path class="st2" d="M113,67.4C114.6,67.6,115,66.6,113,67.4C113.4,67.5,113.4,67.3,113,67.4z"/>
	<path class="st2" d="M110.4,68.5C112,68.6,112.4,67.6,110.4,68.5C110.8,68.5,110.8,68.3,110.4,68.5z"/>
	<path class="st2" d="M115.6,66.3C117.2,66.5,117.6,65.5,115.6,66.3C116,66.4,116,66.2,115.6,66.3z"/>
	<path class="st2" d="M141.5,55.5C143.1,55.6,143.6,54.7,141.5,55.5C141.9,55.5,141.9,55.3,141.5,55.5z"/>
	<path class="st2" d="M147.2,48C147.8,46.3,147.2,45.5,147.2,48C147.3,47.7,147.2,47.5,147.2,48z"/>
	<path class="st2" d="M147.2,53.1C147.6,54.5,147.2,53.1,147.2,53.1C147.2,53.2,146.7,52.7,147.2,53.1z"/>
	<path class="st2" d="M147.2,41.7C147.8,40,147.2,39.2,147.2,41.7C147.3,41.4,147.2,41.2,147.2,41.7z"/>
	<path class="st2" d="M133.7,58.8C135.3,58.9,135.8,57.9,133.7,58.8C134.1,58.8,134.1,58.6,133.7,58.8z"/>
	<path class="st2" d="M125.9,62C127.6,62.1,128,61.2,125.9,62C126.4,62,126.4,61.8,125.9,62z"/>
	<path class="st2" d="M138.9,56.6C140.6,56.7,140.9,55.7,138.9,56.6C139.3,56.6,139.3,56.4,138.9,56.6z"/>
	<path class="st2" d="M123.3,63.1C125,63.2,125.3,62.2,123.3,63.1C123.8,63.1,123.8,62.9,123.3,63.1z"/>
	<path class="st2" d="M128.5,60.9C130.2,61.1,130.5,60.1,128.5,60.9C129,61,129,60.7,128.5,60.9z"/>
	<path class="st2" d="M136.3,57.7C138,57.8,138.3,56.8,136.3,57.7C136.8,57.7,136.7,57.5,136.3,57.7z"/>
	<path class="st2" d="M118.2,65.3C119.9,65.4,120.2,64.4,118.2,65.3C118.5,65.3,118.6,65.1,118.2,65.3z"/>
	<path class="st2" d="M131.1,59.9C132.8,59.9,133.2,59,131.1,59.9C131.5,59.9,131.5,59.7,131.1,59.9z"/>
	<path class="st2" d="M130,58"/>
</g>
<g>
	<path class="st1" d="M125.7,47C127.7,47.9,127.3,46.9,125.7,47C126.1,47.2,126.1,47,125.7,47z"/>
	<path class="st1" d="M147.2,1.4C147.2,3.9,147.8,3,147.2,1.4C147.2,1.9,147.3,1.6,147.2,1.4z"/>
	<path class="st1" d="M147.2,12.5C147.8,10.8,147.2,9.9,147.2,12.5C147.3,12.3,147.2,11.9,147.2,12.5z"/>
	<path class="st1" d="M147.2,9.3C147.8,7.6,147.2,6.8,147.2,9.3C147.3,9.1,147.2,8.8,147.2,9.3z"/>
	<path class="st1" d="M147.2,6.1C147.8,4.5,147.2,3.6,147.2,6.1C147.3,5.9,147.2,5.6,147.2,6.1z"/>
	<path class="st1" d="M147.5,0.5C145.9,0.3,145.5,1.3,147.5,0.5C147.1,0.4,147.1,0.6,147.5,0.5z"/>
	<path class="st1" d="M147.2,44.4C147.8,42.8,147.2,41.9,147.2,44.4C147.3,44.2,147.2,43.9,147.2,44.4z"/>
	<path class="st1" d="M147.2,50.8C147.8,49.1,147.2,48.2,147.2,50.8C147.3,50.5,147.2,50.2,147.2,50.8z"/>
	<path class="st1" d="M147.2,38.1C148.1,36.4,147.2,35.2,147.2,38.1C147.4,37.8,147.2,37.5,147.2,38.1z"/>
	<path class="st1" d="M147.2,28.5C148.1,26.8,147.2,25.6,147.2,28.5C147.4,28.2,147.2,27.9,147.2,28.5z"/>
	<path class="st1" d="M147.2,25.1C148.1,23.4,147.2,22.2,147.2,25.1C147.4,24.7,147.2,24.5,147.2,25.1z"/>
	<path class="st1" d="M147.2,31.9C148.1,30.2,147.2,29,147.2,31.9C147.4,31.5,147.2,31.3,147.2,31.9z"/>
	<path class="st1" d="M147.2,35.3C148.1,33.6,147.2,32.4,147.2,35.3C147.4,35,147.2,34.7,147.2,35.3z"/>
	<path class="st1" d="M147.2,21.7C148.1,20,147.2,18.8,147.2,21.7C147.4,21.3,147.2,21.1,147.2,21.7z"/>
	<path class="st1" d="M147.2,18.8C147.8,17.1,147.2,16.2,147.2,18.8C147.3,18.6,147.2,18.3,147.2,18.8z"/>
	<path class="st1" d="M147.2,15.6C147.8,14,147.2,13.1,147.2,15.6C147.3,15.4,147.2,15.1,147.2,15.6z"/>
	<path class="st1" d="M129.4,8C127.8,7.9,127.3,8.9,129.4,8C128.9,8,128.9,8.2,129.4,8z"/>
	<path class="st1" d="M144.9,1.5C143.3,1.4,142.9,2.4,144.9,1.5C144.5,1.5,144.5,1.7,144.9,1.5z"/>
	<path class="st1" d="M105.8,17C103.8,17.9,104.6,18.4,105.8,17C105.4,17.2,105.5,17.4,105.8,17z"/>
	<path class="st1" d="M142.4,2.6C140.7,2.5,140.3,3.5,142.4,2.6C141.9,2.6,141.9,2.8,142.4,2.6z"/>
	<path class="st1" d="M137.2,4.8C135.5,4.6,135.1,5.6,137.2,4.8C136.7,4.7,136.7,4.9,137.2,4.8z"/>
	<path class="st1" d="M139.7,3.7C138.1,3.6,137.7,4.6,139.7,3.7C139.4,3.7,139.3,3.9,139.7,3.7z"/>
	<path class="st1" d="M134.6,5.9C132.9,5.7,132.6,6.7,134.6,5.9C134.1,5.8,134.1,6,134.6,5.9z"/>
	<path class="st1" d="M108.7,16.7C107,16.6,106.6,17.5,108.7,16.7C108.2,16.7,108.2,16.9,108.7,16.7z"/>
	<path class="st1" d="M102.9,27.3C102.3,29,102.9,29.9,102.9,27.3C102.8,27.6,102.9,27.9,102.9,27.3z"/>
	<path class="st1" d="M102.9,21C102.3,22.7,102.9,23.6,102.9,21C102.8,21.3,102.9,21.6,102.9,21z"/>
	<path class="st1" d="M102.9,33.7C102.3,35.4,102.9,36.2,102.9,33.7C102.8,33.9,102.9,34.2,102.9,33.7z"/>
	<path class="st1" d="M116.4,13.4C114.8,13.3,114.4,14.3,116.4,13.4C116,13.4,116,13.6,116.4,13.4z"/>
	<path class="st1" d="M124.2,10.2C122.6,10.1,122.2,11,124.2,10.2C123.8,10.2,123.8,10.4,124.2,10.2z"/>
	<path class="st1" d="M111.2,15.6C109.6,15.5,109.2,16.5,111.2,15.6C110.8,15.6,110.8,15.8,111.2,15.6z"/>
	<path class="st1" d="M126.8,9.1C125.1,9,124.8,10,126.8,9.1C126.4,9.1,126.4,9.3,126.8,9.1z"/>
	<path class="st1" d="M121.6,11.3C120,11.1,119.6,12.1,121.6,11.3C121.2,11.2,121.2,11.5,121.6,11.3z"/>
	<path class="st1" d="M113.8,14.5C112.2,14.4,111.8,15.4,113.8,14.5C113.4,14.5,113.4,14.7,113.8,14.5z"/>
	<path class="st1" d="M132,6.9C130.3,6.8,130,7.8,132,6.9C131.6,6.9,131.6,7.1,132,6.9z"/>
	<path class="st1" d="M119,12.3C117.3,12.3,117,13.2,119,12.3C118.6,12.3,118.6,12.5,119,12.3z"/>
	<path class="st1" d="M120.2,14.2"/>
</g>
</svg>
